<?xml version="1.0" standalone="no"?>
<!DOCTYPE svg PUBLIC "-//W3C//DTD SVG 1.1//EN" "http://www.w3.org/Graphics/SVG/1.1/DTD/svg11.dtd" >
<svg xmlns="http://www.w3.org/2000/svg">
<metadata></metadata>
<defs>
<font id="hexagonregular" horiz-adv-x="1564" >
<font-face units-per-em="2048" ascent="1638" descent="-410" />
<missing-glyph horiz-adv-x="1024" />
<glyph horiz-adv-x="0" />
<glyph unicode="&#xd;" horiz-adv-x="1024" />
<glyph unicode=" "  horiz-adv-x="1024" />
<glyph unicode="&#x09;" horiz-adv-x="1024" />
<glyph unicode="&#xa0;" horiz-adv-x="1024" />
<glyph unicode="A" d="M0 1192l893 446l596 -596l-297 -149l-447 448l-299 -149l113 -113l297 150l113 -113l-299 -147l223 -224l-297 -149z" />
<glyph unicode="B" d="M0 1192l893 446l596 -596l-596 -297l-148 148l297 149l-110 113l-299 -149l-74 73l297 150l-111 112l-299 -149l447 -447l-297 -149z" />
<glyph unicode="C" d="M0 1192l893 446l149 -149l-596 -297l299 -299l596 299l148 -150l-893 -446z" />
<glyph unicode="D" horiz-adv-x="1406" d="M0 1192l446 -447l299 148l-299 299l224 111h186l113 -111v-186l-523 -261l150 -149l745 373v260l-262 260h-483z" />
<glyph unicode="E" d="M0 1192l596 -596l893 446l-148 150l-596 -299l-75 76l596 297l-111 112l-596 -299l-113 113l596 297l-149 149z" />
<glyph unicode="F" horiz-adv-x="1329" d="M0 1192l893 446l149 -149l-596 -297l113 -113l596 299l111 -112l-596 -297l223 -224l-297 -149z" />
<glyph unicode="G" d="M0 1192l596 -596l893 446l-334 336l-373 -186l111 -113l149 76l74 -76l-371 -186l-299 299l596 297l-149 149z" />
<glyph unicode="H" d="M0 1192l297 149l262 -262l297 150l-260 260l297 149l596 -596l-297 -149l-223 223l-299 -147l223 -224l-297 -149z" />
<glyph unicode="I" horiz-adv-x="937" d="M0 1192l297 149l596 -596l-297 -149z" />
<glyph unicode="J" horiz-adv-x="1251" d="M0 893l297 -297l895 446l-596 596l-299 -149l448 -447l-299 -149l-149 149z" />
<glyph unicode="K" d="M0 1192l596 -596l297 149l-223 224l522 -76l297 149l-148 150h-448l149 297l-149 149l-297 -149l-74 -373l-225 225z" />
<glyph unicode="L" d="M0 1192l297 149l448 -448l297 149l-73 74l297 150l223 -224l-893 -446z" />
<glyph unicode="M" d="M0 1192l297 149h299v148l297 149l596 -596l-297 -149l-299 299v-186h-260l260 -261l-297 -149z" />
<glyph unicode="N" d="M0 1192l596 -596l297 149l-447 447l299 149l447 -448l297 149l-596 596z" />
<glyph unicode="O" d="M0 1192l893 446l596 -596l-297 -149l-447 448l-299 -149l299 -299l297 149l150 -149l-596 -297z" />
<glyph unicode="P" horiz-adv-x="1329" d="M0 1192l596 -596l297 149l-223 224l596 297l-373 372l-596 -297l149 -149l299 149l111 -112l-297 -150l-262 262z" />
<glyph unicode="Q" d="M0 1192l893 446l596 -596l-223 -110l112 -113l-149 -74l-113 111l-223 -111l-148 148l297 149l-297 299l-299 -149l447 -447l-297 -149z" />
<glyph unicode="R" d="M0 1192l893 446l262 -260l-76 -149h224l186 -187l-297 -149l-150 149h-223l-149 -73l-111 110l297 150l-74 74h-112l-224 -111l447 -447l-297 -149z" />
<glyph unicode="S" d="M0 1192l336 -336l596 299l110 -113l-596 -297l150 -149l893 446l-373 373l-594 -299l-76 76l596 297l-149 149z" />
<glyph unicode="T" horiz-adv-x="1251" d="M0 1192l223 -223l299 147l371 -371l299 148l-373 373l297 149l-223 223z" />
<glyph unicode="U" d="M0 1192l596 -596l893 446l-596 596l-297 -149l446 -447l-297 -149l-448 448z" />
<glyph unicode="V" horiz-adv-x="1406" d="M0 1192l446 -447h447l299 148l149 299l-448 446l-297 -149l410 -410l-37 -73l-150 -74h-112l-410 409z" />
<glyph unicode="W" horiz-adv-x="1484" d="M0 1192l522 -522h223l148 75l76 148h223l149 76l74 147l-522 522l-297 -149l373 -373h-224l-75 -147l-373 372z" />
<glyph unicode="X" d="M0 1192l186 -186h224v-224l186 -186l297 149l-148 148l74 149h223l150 -149l297 149l-223 224h-224v223l-149 149l-297 -149l149 -148l-75 -149h-224l-149 149z" />
<glyph unicode="Y" horiz-adv-x="1290" d="M0 1192l336 -336l297 150l260 -261l299 148l-260 262l297 148l-336 335l-297 -149l223 -223l-297 -150l-225 225z" />
<glyph unicode="Z" d="M0 1192l150 -150l520 261l-224 -558l150 -149l893 446l-148 150l-448 -223l149 520l-149 149z" />
<glyph unicode="a" d="M0 596l596 -596l297 150v595l-297 -149l-596 596v-596zM446 1192l113 -113l297 150l-111 112zM670 969l299 147l223 -223l297 149v-596l-297 -149l-299 299v149z" />
<glyph unicode="b" d="M0 596v596l596 -596l893 446v-596l-893 -446zM446 1192l113 -113l297 150l-111 112zM633 1006l299 147l112 -111l-299 -149z" />
<glyph unicode="c" d="M0 596v596l596 -596l893 446v-596l-893 -446zM446 1192l596 297v-447l-297 -149z" />
<glyph unicode="d" horiz-adv-x="1406" d="M0 596v596l596 -596l745 373v-596l-745 -373zM446 1192l299 -299l224 113v186l-113 111h-186z" />
<glyph unicode="e" d="M0 596v596l596 -596l893 446v-596l-893 -446zM446 1192l596 297v-148l-483 -262zM670 969l596 297v-111l-521 -262z" />
<glyph unicode="f" horiz-adv-x="1329" d="M0 596v596l596 -596l297 149l-223 224l596 297v-596l-373 -187v-333l-297 -150zM446 1192l596 297v-148l-483 -262z" />
<glyph unicode="g" d="M0 596v596l596 -596l893 446v-596l-893 -446zM446 1192l299 -299l371 186l-74 76l-149 -76l-111 113l260 131v166z" />
<glyph unicode="h" d="M0 596v596l596 -596l297 149v-595l-297 -150zM559 1079l297 150l-260 260v-393zM670 969l223 -224v-149l299 -299l297 149v596l-297 -149l-223 223z" />
<glyph unicode="i" horiz-adv-x="937" d="M0 596v596l596 -596l297 149v-595l-297 -150z" />
<glyph unicode="j" horiz-adv-x="1251" d="M0 297v596l297 -297l895 446v-596l-895 -446zM297 1042l149 -149l299 149l-448 447v-447z" />
<glyph unicode="k" d="M0 596v596l596 -596l297 149l-223 224l522 -76l297 149v-596l-297 -149l-299 39v-186l-297 -150zM893 1192l149 297v-297h-149z" />
<glyph unicode="l" d="M0 596v596l596 -596l893 446v-596l-893 -446zM969 1006l73 36l-73 74v-110z" />
<glyph unicode="m" d="M0 596v596l596 -596l297 149l-260 261h260v186l299 -299l297 149v-596l-297 -149l-299 299v-446l-297 -150z" />
<glyph unicode="n" d="M0 596l596 -596l297 150v595l-297 -149l-596 596v-596zM446 1192l299 149l447 -448l297 149v-596l-297 -149l-299 299v149z" />
<glyph unicode="o" d="M0 596v596l596 -596l893 446v-596l-893 -446zM446 1192l299 149l297 -299l-297 -149z" />
<glyph unicode="p" horiz-adv-x="1329" d="M0 596v596l596 -596l297 149l-223 224l596 297v-596l-373 -187v-333l-297 -150zM446 1192l299 149l111 -112l-297 -150z" />
<glyph unicode="q" d="M0 596v596l596 -596l520 260l113 -111l149 74l-112 113l223 110v-596l-111 -59v-164l-149 -73l-113 110l-520 -260zM446 1192l299 149l297 -299l-297 -149z" />
<glyph unicode="r" d="M0 596v596l596 -596l297 149l-223 224l149 73h223l150 -149l297 149v-596l-297 -149l-150 149h-149v-296l-297 -150zM446 1192l224 111h112l74 -74l-297 -150zM1079 1229h76v149z" />
<glyph unicode="s" d="M0 596l336 -336l110 59v426l299 148l297 149l-110 113l-596 -299l-336 336v-596zM446 150v595l150 -149l893 446v-596l-893 -446zM446 1192l76 -76l520 262v111z" />
<glyph unicode="t" horiz-adv-x="1251" d="M0 596l260 -260l297 147l336 -333l299 147v596l-299 -148l-371 371l-299 -147l-223 223v-596zM819 1266l297 -297v446z" />
<glyph unicode="u" d="M0 596v596l596 -596l893 446v-596l-893 -446zM596 1042v447l446 -447l-297 -149z" />
<glyph unicode="v" horiz-adv-x="1406" d="M0 596v596l446 -447h447l299 148l149 299v-596l-149 -299l-299 -147h-447zM596 1042v447l410 -410l-37 -73l-150 -74h-112z" />
<glyph unicode="w" horiz-adv-x="1484" d="M0 596v596l522 -522h223l148 75l76 148h223l149 76l74 147v-594l-74 -149l-149 -76h-223l-76 -147l-148 -76h-223zM596 1042v447l373 -373h-224l-75 -147z" />
<glyph unicode="x" d="M0 596v596l186 -186h224v-224l186 -186l297 149v-595l-297 -150l-186 186v224h-224zM596 1192v297l149 -148l-75 -149h-74zM745 893l148 -148v-299h149l150 -149l297 149v596l-297 -149l-150 149h-223z" />
<glyph unicode="y" horiz-adv-x="1290" d="M0 596l336 -336l297 150l260 -260l299 147v596l-299 -148l-260 261l-297 -150l-336 336v-596zM596 1155l223 111l-223 223v-334zM932 1155l297 148v-596l-37 -21v207z" />
<glyph unicode="z" d="M0 596v596l150 -150l520 261l-224 -558l150 -149l893 446v-596l-893 -446l-150 150v446l-296 -150zM893 969l149 73v447z" />
<glyph unicode="&#x2000;" horiz-adv-x="819" />
<glyph unicode="&#x2001;" horiz-adv-x="1638" />
<glyph unicode="&#x2002;" horiz-adv-x="819" />
<glyph unicode="&#x2003;" horiz-adv-x="1638" />
<glyph unicode="&#x2004;" horiz-adv-x="546" />
<glyph unicode="&#x2005;" horiz-adv-x="409" />
<glyph unicode="&#x2006;" horiz-adv-x="273" />
<glyph unicode="&#x2007;" horiz-adv-x="273" />
<glyph unicode="&#x2008;" horiz-adv-x="204" />
<glyph unicode="&#x2009;" horiz-adv-x="327" />
<glyph unicode="&#x200a;" horiz-adv-x="91" />
<glyph unicode="&#x202f;" horiz-adv-x="327" />
<glyph unicode="&#x205f;" horiz-adv-x="409" />
<glyph unicode="&#x25fc;" horiz-adv-x="1484" d="M0 0v1485h1485v-1485h-1485z" />
</font>
</defs>
</svg>
