<?xml version="1.0" standalone="no"?>
<!DOCTYPE svg PUBLIC "-//W3C//DTD SVG 1.1//EN" "http://www.w3.org/Graphics/SVG/1.1/DTD/svg11.dtd" >
<svg xmlns="http://www.w3.org/2000/svg">
<metadata></metadata>
<defs>
<font id="hextremum_ldrregular" horiz-adv-x="1408" >
<font-face units-per-em="2048" ascent="1024" descent="-1024" />
<missing-glyph horiz-adv-x="512" />
<glyph horiz-adv-x="0" />
<glyph horiz-adv-x="682" />
<glyph unicode=" "  horiz-adv-x="512" />
<glyph unicode="&#x09;" horiz-adv-x="512" />
<glyph unicode="&#xa0;" horiz-adv-x="512" />
<glyph unicode="!" horiz-adv-x="2432" d="M0 1024l512 1024h704v-2048h-128v1920h-512l-448 -896h-128z" />
<glyph unicode="#" horiz-adv-x="2432" d="M0 1024l32 64h2112l-416 832h-1280l64 128h1280l512 -1024l-512 -1024h-1280l-64 128h1280l416 832h-2112z" />
<glyph unicode="$" horiz-adv-x="2432" d="M0 1024l512 1024h128l-480 -960h1984l-480 960h128l512 -1024l-512 -1024h-128l480 960h-2112z" />
<glyph unicode="%" horiz-adv-x="2432" d="M0 1024l512 1024h1280l64 -128h-1280l-416 -832h2112l32 -64l-512 -1024h-1280l-64 128h1280l416 832h-2112z" />
<glyph unicode="&#x26;" horiz-adv-x="2432" d="M0 1024l512 1024h1280l512 -1024l-512 -1024h-128l512 1024l-448 896h-1152l-448 -896h-128z" />
<glyph unicode="(" horiz-adv-x="2432" d="M0 1024l512 1024h1280l512 -1024l-512 -1024h-1280l-64 128h1280l416 832h-2112zM160 1088h1984l-416 832h-1152z" />
<glyph unicode=")" horiz-adv-x="2432" d="M0 1024l512 1024h1280l512 -1024l-512 -1024h-1280zM128 1024l448 -896h64l896 1792h-960zM768 128h960l448 896l-448 896h-64z" />
<glyph unicode="*" horiz-adv-x="2432" d="M512 0l512 1024l-512 1024h1280l-512 -1024l512 -1024h-1280zM704 128h896l-448 896l448 896h-896l448 -896z" />
<glyph unicode="+" horiz-adv-x="2432" d="M0 1024l512 1024h1280l512 -1024l-512 -1024h-1280zM128 1024l448 -896h1152l448 896l-448 896h-1152zM576 1024l256 512h640l256 -512l-256 -512h-640z" />
<glyph unicode="-" d="M-512 0l512 1024h1280l512 -1024l-512 -1024h-1280z" />
<glyph unicode="0" d="M-512 0l512 1024h1280l512 -1024l-512 -1024h-1280zM-384 0l448 -896h64l896 1792h-960zM256 -896h960l448 896l-448 896h-64z" />
<glyph unicode="1" d="M-512 0l512 1024h704v-2048h-128v1920h-512l-448 -896h-128z" />
<glyph unicode="2" d="M-512 0l32 64h2112l-416 832h-1280l64 128h1280l512 -1024l-32 -64h-2112l416 -832h1280l-64 -128h-1280z" />
<glyph unicode="3" d="M-512 0l32 64h2112l-416 832h-1280l64 128h1280l512 -1024l-512 -1024h-1280l-64 128h1280l416 832h-2112z" />
<glyph unicode="4" d="M-512 0l512 1024h128l-480 -960h1984l-480 960h128l512 -1024l-512 -1024h-128l480 960h-2112z" />
<glyph unicode="5" d="M-512 0l512 1024h1280l64 -128h-1280l-416 -832h2112l32 -64l-512 -1024h-1280l-64 128h1280l416 832h-2112z" />
<glyph unicode="6" d="M-512 0l512 1024h1280l64 -128h-1280l-416 -832h2112l32 -64l-512 -1024h-1280zM-352 -64l416 -832h1152l416 832h-1984z" />
<glyph unicode="7" d="M-512 0l512 1024h1280l512 -1024l-512 -1024h-128l512 1024l-448 896h-1152l-448 -896h-128z" />
<glyph unicode="8" d="M0 -1024l512 1024l-512 1024h1280l-512 -1024l512 -1024h-1280zM192 896l448 -896l-448 -896h896l-448 896l448 896h-896z" />
<glyph unicode="9" d="M-512 0l512 1024h1280l512 -1024l-512 -1024h-1280l-64 128h1280l416 832h-2112zM-352 64h1984l-416 832h-1152z" />
<glyph unicode="=" d="M-512 0l512 1024h1280l512 -1024l-512 -1024h-1280zM-384 0l448 -896h1152l448 896l-448 896h-1152zM64 0l256 512h640l256 -512l-256 -512h-640z" />
<glyph unicode="@" horiz-adv-x="2432" d="M0 1024l32 64h2112l-416 832h-1280l64 128h1280l512 -1024l-32 -64h-2112l416 -832h1280l-64 -128h-1280z" />
<glyph unicode="A" horiz-adv-x="2432" d="M0 1024l512 1024h1280l512 -1024l-512 -1024h-128l480 960h-1984l480 -960h-128zM160 1088h1984l-416 832h-1152z" />
<glyph unicode="B" horiz-adv-x="2432" d="M0 1024l512 1024h1280l512 -1024l-512 -1024h-1280zM160 960l416 -832h1152l416 832h-1984zM160 1088h1984l-416 832h-1152z" />
<glyph unicode="C" horiz-adv-x="2432" d="M0 1024l512 1024h1280l384 -768h-128l-320 640h-1152l-448 -896l448 -896h1152l320 640h128l-384 -768h-1280z" />
<glyph unicode="D" horiz-adv-x="2432" d="M448 128h1280l448 896l-448 896h-1280l64 128h1280l512 -1024l-512 -1024h-1280z" />
<glyph unicode="E" horiz-adv-x="2432" d="M0 1024l512 1024h1280l64 -128h-1280l-416 -832h2112l32 -64l-32 -64h-2112l416 -832h1280l-64 -128h-1280z" />
<glyph unicode="F" horiz-adv-x="2432" d="M0 1024l512 1024h1280l64 -128h-1280l-416 -832h2112l32 -64l-32 -64h-2112l480 -960h-128z" />
<glyph unicode="G" horiz-adv-x="2432" d="M0 1024l512 1024h1280l64 -128h-1280l-448 -896l448 -896h1152l416 832h-1600l-32 64l32 64h1728l32 -64l-512 -1024h-1280z" />
<glyph unicode="H" horiz-adv-x="2432" d="M0 1024l512 1024h128l-480 -960h1984l-480 960h128l512 -1024l-512 -1024h-128l480 960h-1984l480 -960h-128z" />
<glyph unicode="I" horiz-adv-x="2432" d="M448 128h640v1792h-640l64 128h1280l64 -128h-640v-1792h640l-64 -128h-1280z" />
<glyph unicode="J" horiz-adv-x="2432" d="M0 1024h128l448 -896h1152l448 896l-512 1024h128l512 -1024l-512 -1024h-1280z" />
<glyph unicode="K" horiz-adv-x="2432" d="M0 1024l512 1024h128l-480 -960h512l480 960h640l64 -128h-640l-448 -896l448 -896h640l-64 -128h-640l-480 960h-512l480 -960h-128z" />
<glyph unicode="L" horiz-adv-x="2432" d="M0 1024l512 1024h128l-512 -1024l448 -896h1152l448 896h128l-512 -1024h-1280z" />
<glyph unicode="M" horiz-adv-x="2432" d="M0 1024l512 1024h1280l512 -1024l-512 -1024h-128l512 1024l-448 896h-512v-1920h-128v1920h-512l-448 -896l512 -1024h-128z" />
<glyph unicode="N" horiz-adv-x="2432" d="M0 1024l512 1024h1280l512 -1024l-512 -1024h-128l512 1024l-448 896h-1152l-448 -896l512 -1024h-128z" />
<glyph unicode="O" horiz-adv-x="2432" d="M0 1024l512 1024h1280l512 -1024l-512 -1024h-1280zM128 1024l448 -896h1152l448 896l-448 896h-1152z" />
<glyph unicode="P" horiz-adv-x="2432" d="M0 1024l512 1024h1280l512 -1024l-32 -64h-2112l480 -960h-128zM160 1088h1984l-416 832h-1152z" />
<glyph unicode="Q" horiz-adv-x="2432" d="M0 1024l512 1024h1280l512 -1024l-512 -1024h-384v128h320l448 896l-448 896h-1152l-448 -896l448 -896h320v-128h-384zM1088 0v1024h128v-1024h-128z" />
<glyph unicode="R" horiz-adv-x="2432" d="M0 1024l512 1024h1280l512 -1024l-32 -64h-1472l416 -832h640l-64 -128h-640l-480 960h-512l480 -960h-128zM160 1088h1984l-416 832h-1152z" />
<glyph unicode="S" horiz-adv-x="2432" d="M0 1024l512 1024h1280l288 -576h-128l-224 448h-1152l-416 -832h2112l32 -64l-512 -1024h-1280l-288 576h128l224 -448h1152l416 832h-2112z" />
<glyph unicode="T" horiz-adv-x="2432" d="M0 1024l512 1024h1280l512 -1024h-128l-448 896h-512v-1920h-128v1920h-512l-448 -896h-128z" />
<glyph unicode="U" horiz-adv-x="2432" d="M0 1024l512 1024h128l-512 -1024l448 -896h1152l448 896l-512 1024h128l512 -1024l-512 -1024h-1280z" />
<glyph unicode="V" horiz-adv-x="2432" d="M0 1024l512 1024h128l-480 -960h448l544 -1088h-128l-480 960h-512zM1152 0l544 1088h448l-480 960h128l512 -1024l-32 -64h-512l-480 -960h-128z" />
<glyph unicode="W" horiz-adv-x="2432" d="M0 1024l512 1024h128l-512 -1024l448 -896h512v1920h128v-1920h512l448 896l-512 1024h128l512 -1024l-512 -1024h-1280z" />
<glyph unicode="X" horiz-adv-x="2432" d="M512 0l512 1024l-512 1024h128l512 -1024l-512 -1024h-128zM1152 1024l512 1024h128l-512 -1024l512 -1024h-128z" />
<glyph unicode="Y" horiz-adv-x="2432" d="M0 1024l512 1024h128l-448 -896h1920l-448 896h128l512 -1024h-1088v-1024h-128v1024h-1088z" />
<glyph unicode="Z" horiz-adv-x="2432" d="M0 1024l32 64h2112l-416 832h-1152l-224 -448h-128l288 576h1280l512 -1024l-32 -64h-2112l416 -832h1152l224 448h128l-288 -576h-1280z" />
<glyph unicode="[" d="M-512 0l512 1024h1280l512 -1024l-512 -1024h-1280zM-384 0l448 -896h1152l448 896l-448 896h-1152zM224 0l192 384h448l192 -384l-192 -384h-448z" />
<glyph unicode="]" d="M-512 0l512 1024h1280l512 -1024l-512 -1024h-1280zM-384 0l448 -896h1152l448 896l-448 896h-1152zM416 0l96 192h256l96 -192l-96 -192h-256z" />
<glyph unicode="^" horiz-adv-x="2432" d="M0 1024l512 1024h1280l64 -128h-1280l-416 -832h2112l32 -64l-512 -1024h-1280zM160 960l416 -832h1152l416 832h-1984z" />
<glyph unicode="_" horiz-adv-x="2432" d="M0 1024l512 1024h1280l512 -1024l-512 -1024h-1280z" />
<glyph unicode="`" d="M-512 0l512 1024h1280l512 -1024l-512 -1024h-1280zM-384 0l448 -896h1152l448 896l-448 896h-1152zM-128 0l320 640h896l320 -640l-320 -640h-896z" />
<glyph unicode="a" d="M-512 0l512 1024h1280l512 -1024l-512 -1024h-128l480 960h-1984l480 -960h-128zM-352 64h1984l-416 832h-1152z" />
<glyph unicode="b" d="M-512 0l512 1024h1280l512 -1024l-512 -1024h-1280zM-352 -64l416 -832h1152l416 832h-1984zM-352 64h1984l-416 832h-1152z" />
<glyph unicode="c" d="M-512 0l512 1024h1280l384 -768h-128l-320 640h-1152l-448 -896l448 -896h1152l320 640h128l-384 -768h-1280z" />
<glyph unicode="d" d="M-64 -896h1280l448 896l-448 896h-1280l64 128h1280l512 -1024l-512 -1024h-1280z" />
<glyph unicode="e" d="M-512 0l512 1024h1280l64 -128h-1280l-416 -832h2112l32 -64l-32 -64h-2112l416 -832h1280l-64 -128h-1280z" />
<glyph unicode="f" d="M-512 0l512 1024h1280l64 -128h-1280l-416 -832h2112l32 -64l-32 -64h-2112l480 -960h-128z" />
<glyph unicode="g" d="M-512 0l512 1024h1280l64 -128h-1280l-448 -896l448 -896h1152l416 832h-1600l-32 64l32 64h1728l32 -64l-512 -1024h-1280z" />
<glyph unicode="h" d="M-512 0l512 1024h128l-480 -960h1984l-480 960h128l512 -1024l-512 -1024h-128l480 960h-1984l480 -960h-128z" />
<glyph unicode="i" d="M-64 -896h640v1792h-640l64 128h1280l64 -128h-640v-1792h640l-64 -128h-1280z" />
<glyph unicode="j" d="M-512 0h128l448 -896h1152l448 896l-512 1024h128l512 -1024l-512 -1024h-1280z" />
<glyph unicode="k" d="M-512 0l512 1024h128l-480 -960h512l480 960h640l64 -128h-640l-448 -896l448 -896h640l-64 -128h-640l-480 960h-512l480 -960h-128z" />
<glyph unicode="l" d="M-512 0l512 1024h128l-512 -1024l448 -896h1152l448 896h128l-512 -1024h-1280z" />
<glyph unicode="m" d="M-512 0l512 1024h1280l512 -1024l-512 -1024h-128l512 1024l-448 896h-512v-1920h-128v1920h-512l-448 -896l512 -1024h-128z" />
<glyph unicode="n" d="M-512 0l512 1024h1280l512 -1024l-512 -1024h-128l512 1024l-448 896h-1152l-448 -896l512 -1024h-128z" />
<glyph unicode="o" d="M-512 0l512 1024h1280l512 -1024l-512 -1024h-1280zM-384 0l448 -896h1152l448 896l-448 896h-1152z" />
<glyph unicode="p" d="M-512 0l512 1024h1280l512 -1024l-32 -64h-2112l480 -960h-128zM-352 64h1984l-416 832h-1152z" />
<glyph unicode="q" d="M-512 0l512 1024h1280l512 -1024l-512 -1024h-384v128h320l448 896l-448 896h-1152l-448 -896l448 -896h320v-128h-384zM576 0h128v-1024h-128v1024z" />
<glyph unicode="r" d="M-512 0l512 1024h1280l512 -1024l-32 -64h-1472l416 -832h640l-64 -128h-640l-480 960h-512l480 -960h-128zM-352 64h1984l-416 832h-1152z" />
<glyph unicode="s" d="M-512 0l512 1024h1280l288 -576h-128l-224 448h-1152l-416 -832h2112l32 -64l-512 -1024h-1280l-288 576h128l224 -448h1152l416 832h-2112z" />
<glyph unicode="t" d="M-512 0l512 1024h1280l512 -1024h-128l-448 896h-512v-1920h-128v1920h-512l-448 -896h-128z" />
<glyph unicode="u" d="M-512 0l512 1024h128l-512 -1024l448 -896h1152l448 896l-512 1024h128l512 -1024l-512 -1024h-1280z" />
<glyph unicode="v" d="M-512 0l512 1024h128l-480 -960h448l544 -1088h-128l-480 960h-512zM640 -1024l544 1088h448l-480 960h128l512 -1024l-32 -64h-512l-480 -960h-128z" />
<glyph unicode="w" d="M-512 0l512 1024h128l-512 -1024l448 -896h512v1920h128v-1920h512l448 896l-512 1024h128l512 -1024l-512 -1024h-1280z" />
<glyph unicode="x" d="M0 -1024l512 1024l-512 1024h128l512 -1024l-512 -1024h-128zM640 0l512 1024h128l-512 -1024l512 -1024h-128z" />
<glyph unicode="y" d="M-512 0l512 1024h128l-448 -896h1920l-448 896h128l512 -1024h-1088v-1024h-128v1024h-1088z" />
<glyph unicode="z" d="M-512 0l32 64h2112l-416 832h-1152l-224 -448h-128l288 576h1280l512 -1024l-32 -64h-2112l416 -832h1152l224 448h128l-288 -576h-1280z" />
<glyph unicode="{" horiz-adv-x="2432" d="M0 1024l512 1024h1280l512 -1024l-512 -1024h-1280zM128 1024l448 -896h1152l448 896l-448 896h-1152zM736 1024l192 384h448l192 -384l-192 -384h-448z" />
<glyph unicode="}" horiz-adv-x="2432" d="M0 1024l512 1024h1280l512 -1024l-512 -1024h-1280zM128 1024l448 -896h1152l448 896l-448 896h-1152zM928 1024l96 192h256l96 -192l-96 -192h-256z" />
<glyph unicode="~" horiz-adv-x="2432" d="M0 1024l512 1024h1280l512 -1024l-512 -1024h-1280zM128 1024l448 -896h1152l448 896l-448 896h-1152zM384 1024l320 640h896l320 -640l-320 -640h-896z" />
<glyph unicode="&#xad;" d="M-512 0l512 1024h1280l512 -1024l-512 -1024h-1280z" />
<glyph unicode="&#x2000;" horiz-adv-x="1024" />
<glyph unicode="&#x2001;" horiz-adv-x="2048" />
<glyph unicode="&#x2002;" horiz-adv-x="1024" />
<glyph unicode="&#x2003;" horiz-adv-x="2048" />
<glyph unicode="&#x2004;" horiz-adv-x="682" />
<glyph unicode="&#x2005;" horiz-adv-x="512" />
<glyph unicode="&#x2006;" horiz-adv-x="341" />
<glyph unicode="&#x2007;" horiz-adv-x="341" />
<glyph unicode="&#x2008;" horiz-adv-x="256" />
<glyph unicode="&#x2009;" horiz-adv-x="409" />
<glyph unicode="&#x200a;" horiz-adv-x="113" />
<glyph unicode="&#x2010;" d="M-512 0l512 1024h1280l512 -1024l-512 -1024h-1280z" />
<glyph unicode="&#x2011;" d="M-512 0l512 1024h1280l512 -1024l-512 -1024h-1280z" />
<glyph unicode="&#x2012;" d="M-512 0l512 1024h1280l512 -1024l-512 -1024h-1280z" />
<glyph unicode="&#x2013;" horiz-adv-x="128" d="M-512 0l228 1024h568l228 -1024l-228 -1024h-568z" />
<glyph unicode="&#x2014;" horiz-adv-x="1152" d="M-512 0l455 1024h1138l455 -1024l-455 -1024h-1138z" />
<glyph unicode="&#x202f;" horiz-adv-x="409" />
<glyph unicode="&#x205f;" horiz-adv-x="512" />
<glyph unicode="&#x25fc;" horiz-adv-x="1020" d="M0 0v1020h1020v-1020h-1020z" />
</font>
</defs>
</svg>
